<?xml version="1.0" encoding="UTF-8"?>
<svg width="1069px" height="333px" viewBox="0 0 1069 333" version="1.1" xmlns="http://www.w3.org/2000/svg" xmlns:xlink="http://www.w3.org/1999/xlink">
    <title>Group 3</title>
    <g id="Page-1" stroke="none" stroke-width="1" fill="none" fill-rule="evenodd">
        <g id="Home---posts-" transform="translate(4.000000, -91.000000)">
            <g id="Group-3" transform="translate(-1.000000, 92.000000)">
                <g id="Group-2" transform="translate(949.000000, 51.000000)">
                    <path d="M13.1269531,79.4938754 C19.7050781,83.0378207 19.8417969,89.8571566 19.9453125,94.9987582 C20.0488281,100.14036 19.9453125,105.355203 24.431578,110.201883 C31.8254138,118.189719 47.5732422,108.020243 53.7861328,110.201883 C59.9990234,112.383524 62.0853251,116.090817 65.3072578,118.538047 C69.8205581,121.966138 73.8593484,123.707574 76.9189453,122.996805 C91.8085937,119.537821 94.4920788,90.2827799 94.9160156,78.2741488 C95.3093689,67.1318422 100.643009,50.9609151 101.818359,49.4186801 C102.354094,48.7157166 110.626953,29.1169222 113.795898,22.7233676 C116.964844,16.3298129 116.831055,6.8678988 111.50293,3.40305505 C98.5259885,-5.0357623 86.1919014,11.1388485 80.1611328,15.2741488 C73.2712428,19.9985491 64.8769531,27.4177035 57.8339844,31.1764926 C50.9090484,34.8722883 39.8169327,39.0059954 38.1883662,39.5720004 C36.2627293,40.2412516 29.9574619,42.2340249 24.431578,44.433809 C18.3829688,46.8416833 13.0700302,49.4975856 10.6357422,50.9372347 C5.91146402,53.7311946 0,58.6174349 0,65.2448519 C0,71.8722689 6.54882812,75.9499301 13.1269531,79.4938754 Z" id="Oval-Copy-3" stroke="#2E6B4A" fill="#237B4B"></path>
                    <path d="M63.96875,109.755859 C66.8212891,110.700195 73.8125,114.080078 77.8017578,101.898438 C81.7910156,89.7167969 86.2099609,77.4355469 91.6191406,62.3623047 C97.0283203,47.2890625 102.601563,37.0361328 104.24707,34.3105469 C105.892578,31.5849609 110.05957,23.5380859 111.512695,19.5673828 C112.96582,15.5966797 114.418945,8.91210938 112.96582,6.17871094 C111.512695,3.4453125 108.163574,0.627441406 102.913574,1.30078125 C97.6635742,1.97412109 95.4144041,3.01269531 90.0035888,7.2109375 C84.5927734,11.4091797 63.75,28.9541016 59.6435547,31.0507812 C55.5371094,33.1474609 17.0917969,53.0194387 13.7275391,55.1132812 C10.3632812,57.2071238 2.72070313,66.0292969 10.3632812,74.9238281 C18.0058594,83.8183594 26.8935547,77.1279297 34.5400391,71.7128906 C39.6376953,68.1028646 45.8053385,63.267609 53.0429688,57.2071238 L34.5400391,76.4755859 C30.4195964,80.7939453 27.6663411,84.2333984 26.2802734,86.7939453 C24.2011719,90.6347656 22.1533203,96.8574219 28.3466797,101.898438 C34.5400391,106.939453 41.7421875,104.020508 45.1279297,99.0351562 C48.5136719,94.0498047 58.2050781,78.0664062 66.4394531,66.5898437 C74.6738281,55.1132812 86.9251463,36.6679687 90.0035888,32.4228516 C93.0820313,28.1777344 86.6865234,41.3496094 79.9462891,55.1132812 C75.4527995,64.2890625 69.6360677,75.7939453 62.4960938,89.6279297 C59.59375,95.1266276 58.093099,99.2167969 57.9941406,101.898438 C57.8457031,105.920898 61.1162109,108.811523 63.96875,109.755859 Z" id="Path-7" fill="#268D56"></path>
                    <path d="M66.6870504,101.349365 C59.9491226,99.2805047 60.1914832,101.76715 62.1206055,103.559401 C65.2794716,106.494146 73.9663213,110.471199 71.1623535,105.066406 C70.5650783,103.915127 69.0527344,102.807617 68.0112305,102.034668 L66.6870504,101.349365 Z" id="Path-4" stroke="#35A166" fill="#35A166" transform="translate(66.325677, 104.154398) scale(-1, -1) translate(-66.325677, -104.154398) "></path>
                    <path d="M16.9996011,66.4896684 C8.86790964,63.8948509 9.1604034,67.0136651 11.4885713,69.2615517 C15.3008599,72.9423828 25.7846145,77.9305047 22.4006363,71.1516759 C21.6798126,69.7077125 19.8546351,68.3186451 18.5976925,67.3491926 L16.9996011,66.4896684 Z" id="Path-4" stroke="#35A166" fill="#35A166" transform="translate(16.563477, 70.007812) scale(-1, -1) rotate(12.000000) translate(-16.563477, -70.007812) "></path>
                    <path d="M102.936125,4.98185593 C94.8044331,2.38703841 95.0969268,5.50585259 97.4250947,7.75373923 C101.237383,11.4345703 111.721138,16.4226922 108.33716,9.64386336 C107.616336,8.19990003 105.791159,6.81083264 104.534216,5.84138006 L102.936125,4.98185593 Z" id="Path-4-Copy" stroke="#35A166" fill="#35A166" transform="translate(102.500000, 8.500000) rotate(319.000000) translate(-102.500000, -8.500000) "></path>
                    <path d="M37.8053511,92.9075411 C36.0602339,91.1150607 33.8209896,90.7809902 32.4513472,91.1150607 C27.4817882,92.3271893 28.5300394,97.4575733 31.5143355,100.137033 C33.5350797,101.951365 36.7578067,102.124261 38.3940014,101.184004 C39.6827027,100.443438 42.3810347,98.514963 39.5924605,94.4353732 L37.8053511,92.9075411 Z" id="Path-5" stroke="#35A166" fill="#35A166" transform="translate(34.904982, 96.372438) rotate(-14.000000) translate(-34.904982, -96.372438) "></path>
                    <path d="M38.6664754,78.3272403 C86.7344818,30.7125224 27.2304626,92.7711118 39.784023,77.0291419" id="Path-6" stroke="#87E3B0" fill="#76D29F" transform="translate(47.867280, 69.829970) rotate(-5.000000) translate(-47.867280, -69.829970) "></path>
                    <path d="M86.1513672,33.2670898 C87.4078953,31.9856811 89.3769531,29.3056641 88.1870117,28.2827148 C87.3937174,27.6007487 85.8089193,28.3857422 83.4326172,30.6376953 C80.8875088,32.8094594 78.8550151,35.3229484 76.8590855,37.2648926 C68.5571463,45.3422827 64.704429,50.6490495 65.2094727,51.1806641 C65.6392049,51.633005 72.7930877,45.2409178 79.0070801,39.625548 C81.8518628,37.0548163 84.2186828,35.2380435 86.1513672,33.2670898 Z" id="Path-3" stroke="#35A166" fill="#35A166"></path>
                </g>
                <path d="M967,178.099828 C949.402373,195.710304 879.746077,260.136461 809.277463,294.532781 C738.808848,328.929101 611.357757,338.11317 529.203384,319.684039 C447.049011,301.254909 415.760006,288.676923 405.184451,245.674748 C403.011277,236.838219 403.035169,221.849797 409.073742,212.512692 C418.470113,197.983615 451.358275,193.431828 459.741774,210.839736 C488.43933,270.428742 411.574724,273.957171 374.407374,269.987335 C353.995421,267.807139 325.927957,236.957192 305.301114,228.124344 C283.208906,218.663996 269.613203,213.167126 247.667008,212.403247 C190.951286,210.429147 218.383526,213.685966 153.367303,217.922438 C143.135084,218.589172 131.003874,223.811728 122.605684,217.922438 L119.23979,216.570002 C76.5410145,186.627182 103.026503,149.848564 84.5343746,108.992669 C79.759612,98.4434664 69.0133825,92.8966942 61.5588273,84.6878993 C60.807892,83.8609857 48.8563633,77.8460108 45.0339265,74.6970679 C33.9975635,65.6052558 24.9385493,52.2132501 17.4976315,40.7063517 C6.46616099,23.6468954 2.21529557,11.7162439 0.1923871,0.38513949" id="Path-2" stroke="#FEAAB9" stroke-width="5" stroke-dasharray="10"></path>
            </g>
        </g>
    </g>
</svg>